<?xml version="1.0" encoding="utf-8"?>
<!-- Generator: Adobe Illustrator 24.2.3, SVG Export Plug-In . SVG Version: 6.00 Build 0)  -->
<svg version="1.1" id="Layer_1" xmlns="http://www.w3.org/2000/svg" xmlns:xlink="http://www.w3.org/1999/xlink" x="0px" y="0px"
	 viewBox="0 0 1080 1080" style="enable-background:new 0 0 1080 1080;" xml:space="preserve">
<style type="text/css">
	.st0{fill:#2E3337;}
	.st1{fill:#FFFFFF;}
	.st2{fill:none;stroke:#FFFFFF;stroke-width:9;stroke-miterlimit:10;}
	.st3{fill:url(#SVGID_1_);}
	.st4{fill:url(#SVGID_2_);}
	.st5{fill:url(#SVGID_3_);}
	.st6{fill:url(#SVGID_4_);}
	.st7{fill:url(#SVGID_5_);}
	.st8{fill:url(#SVGID_6_);}
	.st9{fill:url(#SVGID_7_);}
	.st10{fill:url(#SVGID_8_);}
	.st11{fill:url(#SVGID_9_);}
</style>
<g>
	<linearGradient id="SVGID_1_" gradientUnits="userSpaceOnUse" x1="499.8306" y1="143.4683" x2="850.7743" y2="494.412">
		<stop  offset="0.2179" style="stop-color:#494E52"/>
		<stop  offset="1" style="stop-color:#111619"/>
	</linearGradient>
	<path class="st3" d="M369.78,183.54c24.34-0.01,48.79,9.32,67.36,27.9l118.05,118.05h0l0,0l192.69,192.69l102.87-102.86
		c13.7-13.71,20.51-31.57,20.52-49.54c-0.01-17.97-6.82-35.83-20.52-49.54l-32.89-32.89l0.04-0.04L631.71,101.12
		c-50.65-50.65-132.77-50.65-183.41,0l-82.52,82.52C367.11,183.58,368.44,183.54,369.78,183.54z"/>
	<linearGradient id="SVGID_2_" gradientUnits="userSpaceOnUse" x1="493.3742" y1="230.2626" x2="139.6463" y2="583.9905">
		<stop  offset="0" style="stop-color:#111619"/>
		<stop  offset="0.258" style="stop-color:#353A3E"/>
		<stop  offset="0.4106" style="stop-color:#454A4E"/>
		<stop  offset="0.7124" style="stop-color:#22272B"/>
		<stop  offset="0.8883" style="stop-color:#13181C"/>
	</linearGradient>
	<path class="st4" d="M183.54,710.22c-0.01-24.34,9.32-48.79,27.9-67.36L314.31,540l0,0l207.88-207.88L419.32,229.26
		c-13.71-13.7-31.57-20.51-49.54-20.52c-17.97,0.01-35.83,6.82-49.54,20.52l-32.89,32.89l-0.04-0.04L101.12,448.29
		c-50.65,50.65-50.65,132.77,0,183.41l82.52,82.52C183.58,712.89,183.54,711.56,183.54,710.22z"/>
	<linearGradient id="SVGID_3_" gradientUnits="userSpaceOnUse" x1="226.9872" y1="583.3499" x2="632.2267" y2="988.5894">
		<stop  offset="0.067" style="stop-color:#111619"/>
		<stop  offset="0.2829" style="stop-color:#353A3E"/>
		<stop  offset="0.4106" style="stop-color:#454A4E"/>
		<stop  offset="0.7124" style="stop-color:#22272B"/>
		<stop  offset="0.8883" style="stop-color:#13181C"/>
	</linearGradient>
	<path class="st5" d="M710.22,896.46c-24.34,0.01-48.79-9.32-67.36-27.9L540,765.69l0,0L332.12,557.82L229.26,660.68
		c-13.7,13.71-20.51,31.57-20.52,49.54c0.01,17.97,6.82,35.83,20.52,49.54l32.89,32.89l-0.04,0.04l186.19,186.19
		c50.65,50.65,132.77,50.65,183.41,0l82.52-82.52C712.89,896.42,711.56,896.46,710.22,896.46z"/>
	<linearGradient id="SVGID_4_" gradientUnits="userSpaceOnUse" x1="692.525" y1="743.8382" x2="972.9471" y2="463.4161">
		<stop  offset="0.067" style="stop-color:#111619"/>
		<stop  offset="0.3496" style="stop-color:#353A3E"/>
		<stop  offset="0.5168" style="stop-color:#454A4E"/>
		<stop  offset="0.7515" style="stop-color:#22272B"/>
		<stop  offset="0.8883" style="stop-color:#13181C"/>
	</linearGradient>
	<path class="st6" d="M978.88,448.29l-82.52-82.52c0.06,1.34,0.09,2.67,0.09,4.01c0.01,24.34-9.32,48.79-27.9,67.36L765.69,540l0,0
		L557.81,747.88l102.87,102.87c13.71,13.7,31.57,20.51,49.54,20.52c17.97-0.01,35.83-6.82,49.54-20.52l32.89-32.89l0.04,0.04
		l186.19-186.19C1029.53,581.06,1029.53,498.94,978.88,448.29z"/>
	<linearGradient id="SVGID_5_" gradientUnits="userSpaceOnUse" x1="483.8732" y1="451.2834" x2="577.8412" y2="599.8136">
		<stop  offset="0.1425" style="stop-color:#454A4E"/>
		<stop  offset="0.6137" style="stop-color:#22272B"/>
		<stop  offset="0.8883" style="stop-color:#13181C"/>
	</linearGradient>
	<circle class="st7" cx="540" cy="540" r="111.61"/>
	<g>
		<linearGradient id="SVGID_6_" gradientUnits="userSpaceOnUse" x1="518.8878" y1="381.4999" x2="554.9424" y2="431.4846">
			<stop  offset="0.1425" style="stop-color:#454A4E"/>
			<stop  offset="0.6137" style="stop-color:#22272B"/>
			<stop  offset="0.8883" style="stop-color:#13181C"/>
		</linearGradient>
		<path class="st8" d="M540,401.62c17.47,0,34.18,3.25,49.57,9.15L540,361.2l-49.57,49.57C505.82,404.86,522.53,401.62,540,401.62z"
			/>
		<linearGradient id="SVGID_7_" gradientUnits="userSpaceOnUse" x1="653.0518" y1="507.9938" x2="694.9437" y2="566.0713">
			<stop  offset="0.1425" style="stop-color:#454A4E"/>
			<stop  offset="0.6137" style="stop-color:#22272B"/>
			<stop  offset="0.8883" style="stop-color:#13181C"/>
		</linearGradient>
		<path class="st9" d="M669.23,589.57L718.8,540l-49.57-49.57c5.91,15.39,9.15,32.1,9.15,49.57S675.14,574.18,669.23,589.57z"/>
		<linearGradient id="SVGID_8_" gradientUnits="userSpaceOnUse" x1="525.4421" y1="649.0483" x2="561.4968" y2="699.0332">
			<stop  offset="0.1425" style="stop-color:#454A4E"/>
			<stop  offset="0.6137" style="stop-color:#22272B"/>
			<stop  offset="0.8883" style="stop-color:#13181C"/>
		</linearGradient>
		<path class="st10" d="M540,678.38c-17.47,0-34.18-3.25-49.57-9.15L540,718.8l49.57-49.57C574.18,675.14,557.47,678.38,540,678.38z
			"/>
		<linearGradient id="SVGID_9_" gradientUnits="userSpaceOnUse" x1="385.5031" y1="514.5482" x2="427.3951" y2="572.6256">
			<stop  offset="0.1425" style="stop-color:#454A4E"/>
			<stop  offset="0.6137" style="stop-color:#22272B"/>
			<stop  offset="0.8883" style="stop-color:#13181C"/>
		</linearGradient>
		<path class="st11" d="M401.62,540c0-17.47,3.25-34.18,9.15-49.57L361.2,540l49.57,49.57C404.86,574.18,401.62,557.47,401.62,540z"
			/>
	</g>
	<circle class="st1" cx="504.26" cy="500.55" r="39.07"/>
</g>
</svg>
