<?xml version="1.0" encoding="utf-8"?>
<!-- Generator: Adobe Illustrator 24.2.3, SVG Export Plug-In . SVG Version: 6.00 Build 0)  -->
<svg version="1.1" id="Layer_1" xmlns="http://www.w3.org/2000/svg" xmlns:xlink="http://www.w3.org/1999/xlink" x="0px" y="0px"
	 viewBox="0 0 512 512" style="enable-background:new 0 0 512 512;" xml:space="preserve">
<style type="text/css">
	.st0{fill:#B9B8B6;}
	.st1{fill:#FF9C9C;}
	.st2{fill:#FFFFFF;}
	.st3{fill:url(#SVGID_1_);}
	.st4{fill:url(#SVGID_2_);}
	.st5{fill:url(#SVGID_3_);}
	.st6{fill:url(#SVGID_4_);}
	.st7{fill:url(#SVGID_5_);}
	.st8{fill:url(#SVGID_6_);}
	.st9{fill:url(#SVGID_7_);}
	.st10{fill:url(#SVGID_8_);}
	.st11{fill:url(#SVGID_9_);}
</style>
<rect class="st0" width="512" height="512"/>
<g>
	<polygon class="st1" points="214.04,95 214.05,95 214.05,95 	"/>
	<polygon class="st1" points="417.33,214.14 417.14,214.34 417.14,214.34 	"/>
	<g>
		<polygon class="st2" points="228.6,486.96 228.6,486.96 228.6,486.96 		"/>
		<path class="st2" d="M486.66,228.89L486.66,228.89c-3.27-8.07-8.07-15.69-14.34-22.37l0.03-0.03L307.28,41.43
			c-7.07-7.07-15.28-12.41-24.03-15.95l0,0c-8.75-3.55-18.04-5.32-27.32-5.32c-9.28,0-18.57,1.77-27.32,5.32
			c-8.75,3.55-16.96,8.88-24.03,15.95l0,0l-67.65,67.69l-0.02-0.02l-95.77,95.77c-7.07,7.07-12.41,15.28-15.95,24.03
			c-3.55,8.75-5.32,18.04-5.32,27.32c0,9.28,1.77,18.57,5.32,27.32c3.55,8.75,8.88,16.96,15.95,24.03l59.82,59.82l0-0.07
			c0.17,0.18,0.33,0.36,0.51,0.53l7.37,7.37l-0.02,0.02L204.57,471l0,0c7.07,7.07,15.28,12.41,24.03,15.95
			c8.75,3.55,18.04,5.32,27.32,5.32h0c9.28,0,18.57-1.77,27.32-5.32l0,0c8.75-3.55,16.96-8.88,24.03-15.95l0,0l59.82-59.82l-0.07,0
			c0.18-0.17,0.36-0.33,0.53-0.51l0,0l7.31-7.31l0.02,0.02l95.82-95.82c7.07-7.07,12.41-15.28,15.95-24.03
			c3.55-8.75,5.32-18.04,5.32-27.32C491.98,246.93,490.21,237.65,486.66,228.89z"/>
		<polygon class="st2" points="228.6,25.48 228.6,25.48 228.6,25.48 		"/>
	</g>
	<g>
		<linearGradient id="SVGID_1_" gradientUnits="userSpaceOnUse" x1="237.014" y1="69.5473" x2="402.2225" y2="234.7558">
			<stop  offset="0.2179" style="stop-color:#494E52"/>
			<stop  offset="1" style="stop-color:#111619"/>
		</linearGradient>
		<path class="st3" d="M175.79,88.41c11.46-0.01,22.97,4.39,31.71,13.13l55.57,55.57h0l0,0l90.71,90.71l48.42-48.42
			c6.45-6.46,9.65-14.86,9.66-23.32c-0.01-8.46-3.21-16.87-9.66-23.32l-15.48-15.48l0.02-0.02L299.1,49.61
			c-23.84-23.84-62.5-23.84-86.34,0L173.9,88.46C174.53,88.43,175.16,88.41,175.79,88.41z"/>
		<linearGradient id="SVGID_2_" gradientUnits="userSpaceOnUse" x1="233.9746" y1="110.4062" x2="67.4555" y2="276.9253">
			<stop  offset="0" style="stop-color:#111619"/>
			<stop  offset="0.258" style="stop-color:#353A3E"/>
			<stop  offset="0.4106" style="stop-color:#454A4E"/>
			<stop  offset="0.7124" style="stop-color:#22272B"/>
			<stop  offset="0.8883" style="stop-color:#13181C"/>
		</linearGradient>
		<path class="st4" d="M88.12,336.35c-0.01-11.46,4.39-22.97,13.13-31.71l48.42-48.42l0,0l97.86-97.86l-48.42-48.42
			c-6.46-6.45-14.86-9.65-23.32-9.66c-8.46,0.01-16.87,3.21-23.32,9.66l-15.48,15.48l-0.02-0.02l-87.65,87.65
			c-23.84,23.84-23.84,62.5,0,86.34l38.85,38.85C88.14,337.61,88.12,336.98,88.12,336.35z"/>
		<linearGradient id="SVGID_3_" gradientUnits="userSpaceOnUse" x1="108.5716" y1="276.6237" x2="299.3401" y2="467.3922">
			<stop  offset="0.067" style="stop-color:#111619"/>
			<stop  offset="0.2829" style="stop-color:#353A3E"/>
			<stop  offset="0.4106" style="stop-color:#454A4E"/>
			<stop  offset="0.7124" style="stop-color:#22272B"/>
			<stop  offset="0.8883" style="stop-color:#13181C"/>
		</linearGradient>
		<path class="st5" d="M336.06,424.02c-11.46,0.01-22.97-4.39-31.71-13.13l-48.42-48.42l0,0l-97.86-97.86l-48.42,48.42
			c-6.45,6.46-9.65,14.86-9.66,23.32c0.01,8.46,3.21,16.87,9.66,23.32l15.48,15.48l-0.02,0.02l87.65,87.65
			c23.84,23.84,62.5,23.84,86.34,0l38.85-38.85C337.31,424,336.69,424.02,336.06,424.02z"/>
		<linearGradient id="SVGID_4_" gradientUnits="userSpaceOnUse" x1="327.7258" y1="352.1744" x2="459.7359" y2="220.1643">
			<stop  offset="0.067" style="stop-color:#111619"/>
			<stop  offset="0.3496" style="stop-color:#353A3E"/>
			<stop  offset="0.5168" style="stop-color:#454A4E"/>
			<stop  offset="0.7515" style="stop-color:#22272B"/>
			<stop  offset="0.8883" style="stop-color:#13181C"/>
		</linearGradient>
		<path class="st6" d="M462.53,213.04l-38.85-38.85c0.03,0.63,0.04,1.26,0.04,1.89c0.01,11.46-4.39,22.97-13.13,31.71l-48.42,48.42
			l0,0l-97.86,97.86l48.42,48.42c6.46,6.45,14.86,9.65,23.32,9.66c8.46-0.01,16.87-3.21,23.32-9.66l15.48-15.48l0.02,0.02
			l87.65-87.65C486.37,275.55,486.37,236.89,462.53,213.04z"/>
		<linearGradient id="SVGID_5_" gradientUnits="userSpaceOnUse" x1="229.502" y1="214.4528" x2="273.7379" y2="284.3741">
			<stop  offset="0.1425" style="stop-color:#454A4E"/>
			<stop  offset="0.6137" style="stop-color:#22272B"/>
			<stop  offset="0.8883" style="stop-color:#13181C"/>
		</linearGradient>
		<circle class="st7" cx="255.92" cy="256.22" r="52.54"/>
		<g>
			<linearGradient id="SVGID_6_" gradientUnits="userSpaceOnUse" x1="245.9853" y1="181.6019" x2="262.9581" y2="205.1324">
				<stop  offset="0.1425" style="stop-color:#454A4E"/>
				<stop  offset="0.6137" style="stop-color:#22272B"/>
				<stop  offset="0.8883" style="stop-color:#13181C"/>
			</linearGradient>
			<path class="st8" d="M255.92,191.07c8.22,0,16.09,1.53,23.34,4.31l-23.34-23.34l-23.33,23.34
				C239.83,192.6,247.7,191.07,255.92,191.07z"/>
			<linearGradient id="SVGID_7_" gradientUnits="userSpaceOnUse" x1="309.1436" y1="241.1495" x2="328.8644" y2="268.4897">
				<stop  offset="0.1425" style="stop-color:#454A4E"/>
				<stop  offset="0.6137" style="stop-color:#22272B"/>
				<stop  offset="0.8883" style="stop-color:#13181C"/>
			</linearGradient>
			<path class="st9" d="M316.76,279.55l23.33-23.33l-23.33-23.34c2.78,7.25,4.31,15.11,4.31,23.34
				C321.07,264.44,319.54,272.31,316.76,279.55z"/>
			<linearGradient id="SVGID_8_" gradientUnits="userSpaceOnUse" x1="249.0707" y1="307.5516" x2="266.0436" y2="331.0822">
				<stop  offset="0.1425" style="stop-color:#454A4E"/>
				<stop  offset="0.6137" style="stop-color:#22272B"/>
				<stop  offset="0.8883" style="stop-color:#13181C"/>
			</linearGradient>
			<path class="st10" d="M255.92,321.36c-8.22,0-16.09-1.53-23.34-4.31l23.34,23.34l23.34-23.34
				C272.01,319.83,264.15,321.36,255.92,321.36z"/>
			<linearGradient id="SVGID_9_" gradientUnits="userSpaceOnUse" x1="183.1938" y1="244.235" x2="202.9146" y2="271.5752">
				<stop  offset="0.1425" style="stop-color:#454A4E"/>
				<stop  offset="0.6137" style="stop-color:#22272B"/>
				<stop  offset="0.8883" style="stop-color:#13181C"/>
			</linearGradient>
			<path class="st11" d="M190.78,256.22c0-8.22,1.53-16.09,4.31-23.34l-23.33,23.34l23.33,23.33
				C192.31,272.31,190.78,264.44,190.78,256.22z"/>
		</g>
		<circle class="st2" cx="239.1" cy="237.65" r="18.39"/>
	</g>
</g>
</svg>
