<?xml version="1.0" encoding="utf-8"?>
<!-- Generator: Adobe Illustrator 24.2.3, SVG Export Plug-In . SVG Version: 6.00 Build 0)  -->
<svg version="1.1" id="Layer_1" xmlns="http://www.w3.org/2000/svg" xmlns:xlink="http://www.w3.org/1999/xlink" x="0px" y="0px"
	 viewBox="0 0 512 512" style="enable-background:new 0 0 512 512;" xml:space="preserve">
<style type="text/css">
	.st0{fill:#2E3337;}
	.st1{fill:#FFFFFF;}
	.st2{fill:none;stroke:#FFFFFF;stroke-width:9;stroke-miterlimit:10;}
	.st3{fill:url(#SVGID_1_);}
	.st4{fill:url(#SVGID_2_);}
	.st5{fill:url(#SVGID_3_);}
	.st6{fill:url(#SVGID_4_);}
	.st7{fill:url(#SVGID_5_);}
	.st8{fill:url(#SVGID_6_);}
	.st9{fill:url(#SVGID_7_);}
	.st10{fill:url(#SVGID_8_);}
	.st11{fill:url(#SVGID_9_);}
</style>
<g>
	<linearGradient id="SVGID_1_" gradientUnits="userSpaceOnUse" x1="236.7645" y1="66.1165" x2="404.8177" y2="234.1697">
		<stop  offset="0.2179" style="stop-color:#494E52"/>
		<stop  offset="1" style="stop-color:#111619"/>
	</linearGradient>
	<path class="st3" d="M174.49,85.31c11.65-0.01,23.36,4.46,32.26,13.36l56.53,56.53h0l0,0l92.27,92.27l49.26-49.26
		c6.56-6.57,9.82-15.12,9.83-23.72c-0.01-8.61-3.26-17.16-9.83-23.72l-15.75-15.75l0.02-0.02l-89.16-89.16
		c-24.25-24.25-63.58-24.25-87.83,0l-39.52,39.52C173.21,85.33,173.85,85.31,174.49,85.31z"/>
	<linearGradient id="SVGID_2_" gradientUnits="userSpaceOnUse" x1="233.6727" y1="107.6789" x2="64.2863" y2="277.0653">
		<stop  offset="0" style="stop-color:#111619"/>
		<stop  offset="0.258" style="stop-color:#353A3E"/>
		<stop  offset="0.4106" style="stop-color:#454A4E"/>
		<stop  offset="0.7124" style="stop-color:#22272B"/>
		<stop  offset="0.8883" style="stop-color:#13181C"/>
	</linearGradient>
	<path class="st4" d="M85.31,337.51c-0.01-11.65,4.46-23.36,13.36-32.25L147.93,256l0,0l99.54-99.54l-49.26-49.26
		c-6.57-6.56-15.12-9.82-23.72-9.83c-8.61,0.01-17.16,3.26-23.72,9.83l-15.75,15.75l-0.02-0.02l-89.16,89.16
		c-24.25,24.25-24.25,63.58,0,87.83l39.52,39.52C85.33,338.79,85.31,338.15,85.31,337.51z"/>
	<linearGradient id="SVGID_3_" gradientUnits="userSpaceOnUse" x1="106.1104" y1="276.7586" x2="300.1638" y2="470.8119">
		<stop  offset="0.067" style="stop-color:#111619"/>
		<stop  offset="0.2829" style="stop-color:#353A3E"/>
		<stop  offset="0.4106" style="stop-color:#454A4E"/>
		<stop  offset="0.7124" style="stop-color:#22272B"/>
		<stop  offset="0.8883" style="stop-color:#13181C"/>
	</linearGradient>
	<path class="st5" d="M337.51,426.69c-11.65,0.01-23.36-4.46-32.25-13.36L256,364.07l0,0l-99.54-99.54l-49.26,49.26
		c-6.56,6.57-9.82,15.12-9.83,23.72c0.01,8.61,3.26,17.16,9.83,23.72l15.75,15.75l-0.02,0.02l89.16,89.16
		c24.25,24.25,63.58,24.25,87.83,0l39.52-39.52C338.79,426.67,338.15,426.69,337.51,426.69z"/>
	<linearGradient id="SVGID_4_" gradientUnits="userSpaceOnUse" x1="329.0382" y1="353.6101" x2="463.3214" y2="219.327">
		<stop  offset="0.067" style="stop-color:#111619"/>
		<stop  offset="0.3496" style="stop-color:#353A3E"/>
		<stop  offset="0.5168" style="stop-color:#454A4E"/>
		<stop  offset="0.7515" style="stop-color:#22272B"/>
		<stop  offset="0.8883" style="stop-color:#13181C"/>
	</linearGradient>
	<path class="st6" d="M466.16,212.09l-39.52-39.52c0.03,0.64,0.05,1.28,0.04,1.92c0.01,11.65-4.46,23.36-13.36,32.26L364.07,256l0,0
		l-99.54,99.54l49.26,49.26c6.57,6.56,15.12,9.82,23.72,9.83c8.61-0.01,17.16-3.26,23.72-9.83l15.75-15.75l0.02,0.02l89.16-89.16
		C490.42,275.66,490.42,236.34,466.16,212.09z"/>
	<linearGradient id="SVGID_5_" gradientUnits="userSpaceOnUse" x1="229.1231" y1="213.5171" x2="274.1207" y2="284.6424">
		<stop  offset="0.1425" style="stop-color:#454A4E"/>
		<stop  offset="0.6137" style="stop-color:#22272B"/>
		<stop  offset="0.8883" style="stop-color:#13181C"/>
	</linearGradient>
	<circle class="st7" cx="256" cy="256" r="53.44"/>
	<g>
		<linearGradient id="SVGID_6_" gradientUnits="userSpaceOnUse" x1="245.8902" y1="180.1005" x2="263.1553" y2="204.0362">
			<stop  offset="0.1425" style="stop-color:#454A4E"/>
			<stop  offset="0.6137" style="stop-color:#22272B"/>
			<stop  offset="0.8883" style="stop-color:#13181C"/>
		</linearGradient>
		<path class="st8" d="M256,189.73c8.37,0,16.37,1.55,23.74,4.38L256,170.38l-23.74,23.74C239.63,191.29,247.63,189.73,256,189.73z"
			/>
		<linearGradient id="SVGID_7_" gradientUnits="userSpaceOnUse" x1="310.1361" y1="240.6735" x2="330.1965" y2="268.4845">
			<stop  offset="0.1425" style="stop-color:#454A4E"/>
			<stop  offset="0.6137" style="stop-color:#22272B"/>
			<stop  offset="0.8883" style="stop-color:#13181C"/>
		</linearGradient>
		<path class="st9" d="M317.88,279.74L341.62,256l-23.74-23.74c2.83,7.37,4.38,15.37,4.38,23.74
			C322.27,264.37,320.71,272.37,317.88,279.74z"/>
		<linearGradient id="SVGID_8_" gradientUnits="userSpaceOnUse" x1="249.0288" y1="308.219" x2="266.294" y2="332.1548">
			<stop  offset="0.1425" style="stop-color:#454A4E"/>
			<stop  offset="0.6137" style="stop-color:#22272B"/>
			<stop  offset="0.8883" style="stop-color:#13181C"/>
		</linearGradient>
		<path class="st10" d="M256,322.27c-8.37,0-16.37-1.55-23.74-4.38L256,341.62l23.74-23.74C272.37,320.71,264.37,322.27,256,322.27z
			"/>
		<linearGradient id="SVGID_9_" gradientUnits="userSpaceOnUse" x1="182.0175" y1="243.8121" x2="202.0779" y2="271.6231">
			<stop  offset="0.1425" style="stop-color:#454A4E"/>
			<stop  offset="0.6137" style="stop-color:#22272B"/>
			<stop  offset="0.8883" style="stop-color:#13181C"/>
		</linearGradient>
		<path class="st11" d="M189.73,256c0-8.37,1.55-16.37,4.38-23.74L170.38,256l23.74,23.74C191.29,272.37,189.73,264.37,189.73,256z"
			/>
	</g>
	<circle class="st1" cx="238.88" cy="237.11" r="18.71"/>
</g>
</svg>
